<?xml version="1.0" encoding="utf-8"?>
<!-- Generator: Adobe Illustrator 27.7.0, SVG Export Plug-In . SVG Version: 6.00 Build 0)  -->
<svg version="1.1" xmlns="http://www.w3.org/2000/svg" xmlns:xlink="http://www.w3.org/1999/xlink" x="0px" y="0px"
	 viewBox="0 0 1920 1080" style="enable-background:new 0 0 1920 1080;" xml:space="preserve">
<style type="text/css">
	.st0{fill:#F79F00;}
	.st1{fill:#FCF3DB;}
	.st2{fill:#4A2120;}
	.st3{fill:#FFFFFF;}
	.st4{fill:none;stroke:#4A2120;stroke-width:9.9635;stroke-linecap:round;stroke-linejoin:round;stroke-miterlimit:10;}
	.st5{fill:#915937;stroke:#4A2120;stroke-width:9.9635;stroke-linecap:round;stroke-linejoin:round;stroke-miterlimit:10;}
	.st6{fill:#915937;}
	.st7{opacity:0.24;fill:#4A2120;}
	.st8{font-family:'FredokaOne-Regular';}
	.st9{font-size:160.0078px;}
</style>
<g id="BACKGROUND">
	<rect class="st0" width="1920" height="1080"/>
</g>
<g id="OBJECTS">
</g>
<g id="TEXT">
	<g>
		<g>
			<g>
				<g>
					<path class="st1" d="M521.15,470.69c-1.42,0-2.81-0.6-3.79-1.74c-8.74-10.22-14.97-21.19-18.57-32.66
						c-1.97,0.35-3.97,0.52-5.97,0.52c-15.15,0-28.37-9.72-32.89-24.2c-3.37-10.78-1.24-22.36,5.51-31.19
						c-2.07-2.92-3.65-6.11-4.72-9.54c-5.67-18.14,4.48-37.51,22.62-43.17c3.34-1.04,6.79-1.57,10.26-1.57
						c6.78,0,13.38,2.03,18.98,5.72c3.82-9.46,11.72-16.95,21.67-20.05c3.34-1.04,6.8-1.57,10.27-1.57
						c13.7,0,26.06,8.18,31.52,20.61c10.15,3.65,17.99,11.77,21.23,22.13c3.93,12.59,0.17,26.35-9.19,35.27
						c7.69,8.87,13.39,18.97,16.98,30.1c0.73,2.25-0.23,4.7-2.29,5.86l-79.18,44.84C522.83,470.48,521.98,470.69,521.15,470.69z"/>
					<path class="st2" d="M544.51,316.21c12.19,0,23.51,7.64,27.76,19.65c9.3,2.6,17.14,9.69,20.24,19.59
						c3.98,12.75-1.14,26.16-11.69,33.25c9.07,9.27,15.58,19.99,19.5,32.17l-79.18,44.84c-9.1-10.65-15.65-22.36-18.88-35.47
						c-0.22,0.07-0.43,0.17-0.65,0.24c-2.93,0.91-5.89,1.35-8.8,1.35c-12.55,0-24.19-8.08-28.13-20.7
						c-3.38-10.8-0.21-22.08,7.25-29.59c-2.86-3.11-5.12-6.85-6.46-11.15c-4.86-15.54,3.81-32.08,19.35-36.93
						c2.92-0.91,5.87-1.35,8.77-1.35c8.3,0,16.19,3.54,21.74,9.59c1.51-10.96,9.13-20.63,20.39-24.14
						C538.65,316.65,541.6,316.21,544.51,316.21 M544.51,306.25c-3.98,0-7.93,0.61-11.76,1.8c-9.54,2.98-17.45,9.49-22.33,17.9
						c-5.22-2.47-10.97-3.79-16.83-3.79c-3.97,0-7.92,0.61-11.74,1.8c-10.06,3.14-18.29,10.01-23.18,19.35
						c-4.89,9.33-5.85,20.01-2.71,30.07c0.87,2.79,2.04,5.45,3.49,7.95c-6.1,9.66-7.78,21.6-4.28,32.79
						c5.17,16.56,20.3,27.69,37.64,27.69c0.85,0,1.71-0.03,2.56-0.08c3.92,10.69,10.02,20.9,18.2,30.47
						c1.95,2.28,4.74,3.49,7.58,3.49c1.67,0,3.36-0.42,4.9-1.29l79.18-44.84c4.11-2.33,6.02-7.23,4.57-11.73
						c-3.34-10.35-8.4-19.86-15.1-28.38c2.92-3.52,5.23-7.54,6.79-11.85c2.94-8.14,3.12-16.82,0.53-25.1
						c-3.5-11.19-11.67-20.09-22.33-24.57C573.05,314.78,559.48,306.25,544.51,306.25L544.51,306.25z"/>
				</g>
				<g>
					<path class="st3" d="M565.99,344.42c0,10.42-8.72,3.05-20.61,3.05c-11.89,0-22.45,7.37-22.45-3.05s9.64-18.87,21.53-18.87
						C556.35,325.56,565.99,334,565.99,344.42z"/>
					<path class="st3" d="M516.1,356.65c0,10.42-8.72,3.05-20.61,3.05s-22.45,7.37-22.45-3.05s9.64-18.87,21.53-18.87
						S516.1,346.23,516.1,356.65z"/>
				</g>
				<path class="st4" d="M502.39,450.18c0,0-7.9-22.43-6.57-42.98"/>
				<path class="st4" d="M602.48,406.17c0,0-13.61-19.5-31.07-30.41"/>
			</g>
			<g>
				<g>
					<g>
						<path class="st5" d="M885.99,515.54c-8.59-5.19-18.42-5.58-26.79-2.25c0.17-0.58,0.28-1.11,0.33-1.56
							c0.78-8.32-4.2-15.59-11.13-16.25c-6.93-0.65-13.18,5.57-13.96,13.89c-0.05,0.55-0.15,1.19-0.28,1.92
							c-2.49,13.65-12.2,24.89-25.19,29.78l-24.46,9.22l12.29,32.6l40.43-15.24c6.7-2.53,14.05-1.94,20.56,1.03
							c0.03,0.01,0.06,0.03,0.1,0.04c16.19,7.33,35.45-0.84,41.12-18.23C903.27,537.37,897.8,522.67,885.99,515.54z"/>
						<g>
							<g>
								<path class="st2" d="M866.05,508.38c-9.15,1.7-17.04,9.07-19.17,18.16c-2.31,9.82,1.53,20.05,9.73,25.89
									c4.33,3.08,9.81,4.67,15.11,4.45c1.92-0.08,3.56-1.58,3.56-3.56c0-1.86-1.63-3.64-3.56-3.56c-2.1,0.09-3.34-0.03-5.12-0.48
									c-2.01-0.51-3.09-0.96-4.79-1.96c-1.69-0.99-2.65-1.75-4.05-3.24c-0.71-0.77-0.9-1-1.36-1.68c-0.6-0.88-1.1-1.8-1.57-2.76
									c-3-6.17-1.51-14.21,3.18-19.09c1.55-1.61,2.57-2.39,4.54-3.46c0.43-0.24,0.87-0.45,1.32-0.66
									c0.06-0.03,0.62-0.26,0.17-0.08c0.23-0.09,0.46-0.18,0.69-0.26c1.05-0.37,2.12-0.64,3.21-0.85
									c1.89-0.35,2.96-2.64,2.49-4.38C869.88,508.88,867.95,508.03,866.05,508.38L866.05,508.38z"/>
							</g>
						</g>
					</g>
					<g>
						<path class="st5" d="M368.2,547.06c7.94-6.13,17.66-7.64,26.36-5.3c-0.23-0.55-0.41-1.07-0.5-1.51
							c-1.73-8.18,2.39-15.97,9.2-17.41c6.81-1.44,13.73,4.02,15.46,12.2c0.11,0.54,0.28,1.17,0.5,1.88
							c4.04,13.28,14.96,23.33,28.42,26.71l25.35,6.36l-8.48,33.79l-41.9-10.52c-6.95-1.74-14.18-0.32-20.31,3.38
							c-0.03,0.02-0.06,0.04-0.09,0.05c-15.25,9.13-35.31,3.21-42.93-13.41C353.53,570.73,357.28,555.49,368.2,547.06z"/>
						<g>
							<g>
								<path class="st2" d="M386.93,545.98c1.42,0.1,3.11,0.45,4.91,1.12c0.18,0.07,0.35,0.13,0.53,0.2
									c0.57,0.24-0.38-0.18,0.18,0.09c0.4,0.19,0.79,0.38,1.18,0.59c0.83,0.45,1.62,0.95,2.39,1.49c0.51,0.36-0.31-0.26,0.18,0.13
									c0.15,0.12,0.29,0.24,0.44,0.36c0.38,0.32,0.75,0.66,1.11,1.01c0.58,0.57,1.37,1.44,1.71,1.88c0.83,1.08,1.9,3.01,2.34,4.24
									c0.7,1.96,1.01,3.6,1.08,5.39c0.08,2.15-0.05,3.47-0.59,5.46c-0.94,3.49-2.69,6.16-5.48,8.57c-0.68,0.59-1.03,0.84-2,1.45
									c-0.9,0.56-1.84,1.08-2.82,1.48c0.38-0.15-0.72,0.25-0.9,0.31c-0.47,0.16-0.96,0.3-1.44,0.42c-0.55,0.14-1.1,0.25-1.65,0.35
									c-0.42,0.07-0.07,0.02,0.02,0.01c-0.37,0.05-0.75,0.08-1.12,0.1c-1.92,0.14-3.56,1.54-3.56,3.56c0,1.82,1.63,3.7,3.56,3.56
									c9.81-0.71,18.49-7.05,21.79-16.38c3.25-9.19,0.47-20.14-7.01-26.45c-4.23-3.57-9.3-5.67-14.83-6.06
									c-1.92-0.13-3.56,1.73-3.56,3.56C383.38,544.45,385.01,545.84,386.93,545.98L386.93,545.98z"/>
							</g>
						</g>
					</g>
				</g>
				<g>
					<g>
						<path class="st6" d="M623.93,768.76c-47.67,0-93.06-20.28-127.82-57.11c-33.56-35.57-53.07-83.22-53.51-130.73
							c-0.51-57.86,27.15-115.69,72.2-150.94c32.1-25.1,72.68-38.92,114.27-38.92c17.13,0,33.91,2.38,49.87,7.08
							c22.36,6.58,43.22,17.68,62,32.99c32.7,26.66,55.69,63.3,64.73,103.18c12.01,53.02-0.62,111.77-33.79,157.16
							c-0.96,1.31-2.47,2.04-4.02,2.04c-0.64,0-1.29-0.12-1.9-0.38c-3.74-1.55-7.69-2.33-11.76-2.33c-8.42,0-16.28,3.37-22.13,9.48
							c-0.96,1.01-2.27,1.54-3.6,1.54c-0.8,0-1.6-0.19-2.34-0.58c-5.09-2.71-10.83-4.14-16.61-4.14
							c-19.56,0-35.47,15.92-35.47,35.49c0,0.21,0.02,0.42,0.03,0.63l0.03,0.56c0.08,1.75-0.76,3.42-2.22,4.39
							c-0.83,0.55-1.79,0.83-2.75,0.83c-0.73,0-1.47-0.16-2.15-0.49c-2.73-1.31-5.63-1.97-8.62-1.97c-11,0-19.95,8.95-19.95,19.95
							c0,1.92,0.26,3.79,0.78,5.58c0.42,1.45,0.16,3.01-0.71,4.25c-0.87,1.23-2.25,2.01-3.76,2.11c-3.57,0.23-7.2,0.35-10.77,0.35
							C623.95,768.76,623.94,768.76,623.93,768.76z"/>
						<path class="st2" d="M629.08,396.04c16.37,0,32.72,2.25,48.46,6.88c22.04,6.48,42.51,17.59,60.26,32.07
							c31.17,25.41,54.12,61.16,63.02,100.42c11.9,52.54-1.2,109.66-32.95,153.11c-4.2-1.74-8.81-2.71-13.67-2.71
							c-10.12,0-19.24,4.25-25.73,11.02c-5.65-3-12.11-4.72-18.95-4.72c-22.34,0-40.45,18.11-40.45,40.47
							c0,0.47,0.05,0.95,0.07,1.42c-3.25-1.56-6.91-2.46-10.77-2.46c-13.78,0-24.94,11.16-24.94,24.94c0,2.42,0.34,4.77,0.97,6.96
							c-3.5,0.23-7,0.34-10.45,0.34c-96.97,0-175.47-87.16-176.36-182.9c-0.5-56.22,25.95-112.28,70.29-146.97
							C549.3,409.33,589.24,396.04,629.08,396.04 M629.08,386.08v9.96V386.08c-42.7,0-84.38,14.2-117.34,39.98
							c-22.9,17.92-41.85,41.77-54.81,68.98c-12.88,27.04-19.56,56.76-19.3,85.93c0.23,24.78,5.3,49.24,15.06,72.71
							c9.48,22.8,22.88,43.46,39.81,61.4c17.18,18.2,37.01,32.55,58.95,42.65c23.11,10.64,47.51,16.03,72.5,16.03
							c3.68,0,7.41-0.12,11.09-0.36c3.01-0.19,5.77-1.74,7.51-4.21s2.26-5.59,1.42-8.49c-0.39-1.34-0.58-2.75-0.58-4.19
							c0-8.26,6.72-14.97,14.97-14.97c2.24,0,4.41,0.5,6.47,1.48c1.37,0.65,2.84,0.98,4.3,0.98c1.93,0,3.85-0.56,5.51-1.66
							c2.92-1.94,4.61-5.27,4.44-8.78c-0.01-0.21-0.02-0.42-0.04-0.63c-0.01-0.12-0.02-0.24-0.02-0.36
							c0-16.78,13.68-30.47,30.49-30.47c4.97,0,9.9,1.23,14.27,3.55c1.48,0.79,3.08,1.17,4.68,1.17c2.66,0,5.27-1.06,7.2-3.08
							c4.9-5.12,11.48-7.95,18.53-7.95c3.41,0,6.72,0.66,9.85,1.95c1.24,0.51,2.53,0.76,3.81,0.76c3.11,0,6.13-1.46,8.05-4.09
							c34.01-46.54,46.95-106.8,34.63-161.19c-9.29-40.96-32.88-78.58-66.44-105.94c-19.3-15.74-40.74-27.14-63.75-33.91
							C663.93,388.53,646.68,386.08,629.08,386.08L629.08,386.08z"/>
					</g>
					<path class="st7" d="M637.35,743.08c-2.48,3.86-3.93,8.47-3.93,13.39c0,2.42,0.34,4.77,0.97,6.98
						c-88.63,5.69-163.98-61.89-182.45-145.01C486.48,689.89,559.66,739.6,637.35,743.08z"/>
					<path class="st1" d="M784.84,660.5c8.38-30.58,9.44-62.88,2.1-93.73c-10.1-42.21-36.07-80.66-71.37-107.99
						c-20.1-15.56-43.28-27.51-68.23-34.47c-38.94-10.89-81.22-9.53-119.75,2.53c43.3-29.2,99.76-38.71,149.95-23.92
						c22.04,6.48,42.51,17.57,60.26,32.05c31.17,25.41,54.12,61.16,63.02,100.42C810.3,577.27,803.91,622.04,784.84,660.5z"/>
					<g>
						<path class="st2" d="M521.65,498.58c8.13,12.1,4.9,28.48-7.22,36.6c-12.12,8.12-28.53,4.89-36.66-7.21
							c-8.13-12.1-4.9-28.48,7.22-36.6C497.11,483.26,513.52,486.49,521.65,498.58z"/>
						
							<ellipse transform="matrix(1 -1.186623e-03 1.186623e-03 1 -0.7275 0.9128)" class="st2" cx="768.85" cy="613.58" rx="20.58" ry="20.55"/>
						<path class="st2" d="M609.99,716.24c3.98,8.57,0.25,18.73-8.33,22.7c-8.58,3.97-18.76,0.24-22.74-8.33
							c-3.98-8.57-0.25-18.73,8.33-22.7C595.83,703.94,606.01,707.67,609.99,716.24z"/>
						<path class="st2" d="M761.47,651.29c4.59,4.99,3.03,12.87-3.11,15.74c-3.82,1.79-8.55,0.86-11.41-2.25
							c-4.59-4.99-3.03-12.87,3.11-15.74C753.88,647.25,758.61,648.18,761.47,651.29z"/>
						<path class="st2" d="M595.65,681.82c3.1,6.68,0.19,14.59-6.49,17.69c-6.68,3.09-14.62,0.19-17.72-6.49
							c-3.1-6.68-0.19-14.59,6.49-17.69C584.62,672.24,592.55,675.15,595.65,681.82z"/>
						
							<ellipse transform="matrix(1 -2.289522e-03 2.289522e-03 1 -1.0691 1.2605)" class="st2" cx="550.03" cy="467.6" rx="17.12" ry="17.1"/>
						<path class="st2" d="M744.97,626.71c4.11,6.11,2.47,14.38-3.65,18.48c-6.12,4.1-14.41,2.47-18.51-3.64
							c-4.11-6.11-2.47-14.38,3.65-18.48C732.57,618.97,740.86,620.6,744.97,626.71z"/>
						<path class="st2" d="M524.12,466.25c3.65,5.43,2.2,12.79-3.24,16.44c-5.44,3.64-12.81,2.2-16.46-3.24
							c-3.65-5.43-2.2-12.79,3.24-16.44S520.47,460.82,524.12,466.25z"/>
						
							<ellipse transform="matrix(0.1562 -0.9877 0.9877 0.1562 -233.0249 1113.792)" class="st2" cx="535.35" cy="693.28" rx="24.35" ry="24.39"/>
					</g>
				</g>
				<path class="st2" d="M651.1,571.52c-0.75,13.88-12.68,24.34-26.64,23.35c-13.96-0.98-24.67-13.04-23.91-26.92
					c0.75-13.88,11.16,7.65,25.12,8.64C639.62,577.57,651.85,557.64,651.1,571.52z"/>
				<ellipse class="st2" cx="561.54" cy="572.97" rx="22.13" ry="21.75"/>
				<ellipse class="st2" cx="691.2" cy="572.97" rx="22.13" ry="21.75"/>
			</g>
		</g>
		<g>
			<text transform="matrix(1 0 0 1 942.5779 551.2131)"><tspan x="0" y="0" class="st2 st8 st9">Smash</tspan><tspan x="0" y="152.33" class="st2 st8 st9">Brownie</tspan></text>
		</g>
	</g>
</g>
</svg>
