<?xml version="1.0" encoding="utf-8"?>
<!-- Generator: Adobe Illustrator 27.7.0, SVG Export Plug-In . SVG Version: 6.00 Build 0)  -->
<svg version="1.1" xmlns="http://www.w3.org/2000/svg" xmlns:xlink="http://www.w3.org/1999/xlink" x="0px" y="0px"
	 viewBox="0 0 1920 1080" style="enable-background:new 0 0 1920 1080;" xml:space="preserve">
<style type="text/css">
	.st0{fill:#EAA978;}
	.st1{fill:#7A3636;}
	.st2{fill:#632828;}
	.st3{fill:#4F1F1D;}
	.st4{fill:#8E4343;}
</style>
<g id="BACKGROUND">
</g>
<g id="OBJECTS">
	<g>
		<g>
			<path class="st0" d="M0,88.84c20.34,6.36,27.08,30.87,24.49,46.84c-3.66,22.52-20.26,50.04-4.59,71.72
				c9.49,13.13,34.57,24.9,47.7,7.8c7.62-9.93,6.53-24.22,5.45-35.3c-1.37-13.99-5.12-27.85-5.26-41.92
				c-0.11-11.24,2.14-23.01,9.23-32.9c8.71-12.14,23.75-17.53,40.91-18.41C154.12,84.83,190.49,95,223,106.57
				c28.06,9.99,57,20.58,81.96,35c21.9,12.65,43.55,31.02,41.23,54.12c-1.2,11.93-8.75,23.73-5.99,35.87
				c1.98,8.69,9.96,17.9,21.37,19.91c29.69,5.23,31.45-30.88,29.47-45.17c-3.71-26.85-16.6-52.07-8.85-79.33
				c6.94-24.4,25.7-46.55,52.58-59.84c27.28-13.49,61.58-17.88,92.78-11.66c30.19,6.02,55.17,21.54,78.31,37.35
				c22.02,15.03,43.48,31.12,68.99,42.44c23.3,10.35,49.16,16.58,75.64,19.02c53.29,4.91,109.58-6.2,152.45-32.07
				c10.96-6.61,20.48-14.27,30.15-22.02c10.68-8.56,23.19-18.49,38.85-20.54c12.06-1.58,28.6,1.6,33.79,11.36
				c3.04,5.72,0.24,12.2,3.23,17.98c1.74,3.35,4.8,6.47,9.08,7.67c32.58,9.19,33.84-29.14,47.28-33.26
				c15.98-4.9,34.21-0.44,48.86,5.25c24.34,9.44,45.62,23.78,62.58,40.45c17.17,16.89,29.95,36.7,37.34,57.58
				c7.08,20.01,7.24,39.41,6.1,59.96c-0.83,14.97-1.1,33.34,10.75,45.96c11.56,12.32,33.28,13.07,47.52,3.16
				c20.46-14.25,18.57-35.94,13.16-55.12c-6.66-23.58-9.61-45.11,1.04-68.34c20.16-43.96,77.99-70.34,136.16-62.64
				c58.12,7.7,93.42,52.22,151.33,60.61c27.51,3.99,56.27,1.07,81.44-8.65c26.54-10.25,47.32-27.61,73.33-38.55
				c22.65-9.53,55.82-13.99,75.63,2.1c14.18,11.52,21.61,32.39,46.57,30.55c13.15-0.97,23.93-7.93,34.1-13.99
				c9.77-5.82,19.47-11.73,28.77-18.02V25.84H0V88.84z"/>
			<path class="st1" d="M0,67.03c20.34,6.76,27.08,32.84,24.49,49.83c-3.66,23.96-20.26,53.24-4.59,76.3
				c9.49,13.97,34.57,26.49,47.7,8.3c7.62-10.56,6.53-25.77,5.45-37.56c-1.37-14.88-5.12-29.63-5.26-44.59
				c-0.11-11.96,2.14-24.48,9.23-35c8.71-12.91,23.75-18.65,40.91-19.58c36.19-1.97,72.56,8.85,105.06,21.16
				c28.06,10.63,57,21.9,81.96,37.23c21.9,13.46,43.55,33,41.23,57.58c-1.2,12.69-8.75,25.25-5.99,38.16
				c1.98,9.24,9.96,19.04,21.37,21.18c29.69,5.57,31.45-32.85,29.47-48.06c-3.71-28.57-16.6-55.39-8.85-84.4
				c6.94-25.96,25.7-49.52,52.58-63.67c27.28-14.35,61.58-19.02,92.78-12.4c30.19,6.4,55.17,22.92,78.31,39.73
				c22.02,16,43.48,33.11,68.99,45.16c23.3,11.01,49.16,17.64,75.64,20.23c53.29,5.22,109.58-6.59,152.45-34.11
				c10.96-7.04,20.48-15.18,30.15-23.43c10.68-9.11,23.19-19.67,38.85-21.85c12.06-1.68,28.6,1.7,33.79,12.08
				c3.04,6.08,0.24,12.98,3.23,19.13c1.74,3.57,4.8,6.88,9.08,8.16c32.58,9.78,33.84-31,47.28-35.39
				c15.98-5.21,34.21-0.47,48.86,5.58c24.34,10.05,45.62,25.3,62.58,43.04c17.17,17.97,29.95,39.05,37.34,61.26
				c7.08,21.29,7.24,41.92,6.1,63.79c-0.83,15.93-1.1,35.47,10.75,48.9c11.56,13.11,33.28,13.9,47.52,3.36
				c20.46-15.16,18.57-38.24,13.16-58.64c-6.66-25.09-9.61-47.99,1.04-72.71c20.16-46.77,77.99-74.83,136.16-66.64
				c58.12,8.19,93.42,55.56,151.33,64.49c27.51,4.24,56.27,1.14,81.44-9.2c26.54-10.91,47.32-29.37,73.33-41.01
				c22.65-10.14,55.82-14.88,75.63,2.24c14.18,12.25,21.61,34.46,46.57,32.51c13.15-1.03,23.93-8.44,34.1-14.88
				c9.77-6.19,19.47-12.48,28.77-19.17V0H0V67.03z"/>
			<g>
				<path class="st2" d="M1920,104.14V19.99c-35.81,23.96-96.32,13.69-138.12,13.64c-28.04-0.03-54.16,4.64-79.23,15.28
					c-22.03,9.35-41.99,21.69-62.65,32.96c-19.96,10.89-41.63,22.05-65.67,24.67c-27.27,2.97-50.76-8.16-74.37-17.94
					c-20.6-8.53-43.04-16.68-66.44-12.46c-10.36,1.87-19.35,6-26.81,11.64c7.32-0.1,14.72,0.35,22.13,1.4
					c58.12,8.19,93.42,55.56,151.33,64.49c27.51,4.24,56.27,1.14,81.44-9.2c26.54-10.91,47.32-29.37,73.33-41.01
					c22.65-10.14,55.82-14.88,75.63,2.24c14.18,12.25,21.61,34.46,46.57,32.51c13.15-1.03,23.93-8.44,34.1-14.88
					C1901,117.12,1910.7,110.83,1920,104.14z"/>
				<path class="st2" d="M933.1,79.1c10.68-9.11,23.19-19.67,38.85-21.85c12.06-1.68,28.6,1.7,33.79,12.08
					c3.04,6.08,0.24,12.98,3.23,19.13c1.74,3.57,4.8,6.88,9.08,8.16c32.58,9.78,33.84-31,47.28-35.39
					c15.98-5.21,34.21-0.47,48.86,5.58c2.12,0.88,4.19,1.84,6.27,2.8c-1.2-3.51-1.91-7.35-3.07-10.21
					c-9.35-23.13-35.46-29.65-62.2-29.03c-37.3,0.87-76.04,6.4-112.64,12.32c-38.9,6.3-74.51,17.5-111.01,30.11
					c-35.69,12.33-69.88,18.38-107.22,7.22c-33.87-10.13-63.17-28.97-93.39-44.88C581.26,9,507.13-12.84,457.83,25.87
					c-5.29,4.15-9.83,8.77-13.81,13.71c25.55-10.87,55.77-13.94,83.55-8.05c30.19,6.4,55.17,22.92,78.31,39.73
					c22.02,16,43.48,33.11,68.99,45.16c23.3,11.01,49.16,17.64,75.64,20.23c53.29,5.22,109.58-6.59,152.45-34.11
					C913.92,95.49,923.44,87.35,933.1,79.1z"/>
				<path class="st2" d="M1214.11,171.12c7.08,21.29,7.24,41.92,6.1,63.79c-0.83,15.93-1.1,35.47,10.75,48.9
					c11.56,13.11,33.28,13.9,47.52,3.36c13.98-10.36,17.52-24.42,16.63-38.8c-12.33-0.44-23.13-5.54-31.84-13.93
					c-24.61-23.7-21.54-57.56-26.46-86.77c-4.36-25.92-17.26-52.83-45.87-66.09c-12.73-5.9-26.52-7.47-40.71-5.09
					c-3.6,0.61-7.88,1.84-12.08,2.48c14.49,8.73,27.5,19.26,38.63,30.89C1193.95,127.83,1206.72,148.91,1214.11,171.12z"/>
				<path class="st2" d="M24.49,116.86c-3.66,23.96-20.26,53.24-4.59,76.3c9.49,13.97,34.57,26.49,47.7,8.3
					c7.62-10.56,6.53-25.77,5.45-37.56c-0.58-6.27-1.57-12.51-2.55-18.76c-11.86,1.66-23.59-14.36-25.71-23.04
					c-3.75-15.34-1.09-31.44-6.96-46.51c-4.44-11.41-13.06-21.34-24.3-28.64C9.24,44.16,4.72,41.88,0,40.04v26.98
					C20.34,73.79,27.08,99.87,24.49,116.86z"/>
				<path class="st2" d="M372.95,149.8c-14.29-4.15-24.58-16.99-33.34-26.67c-9.69-10.71-19.39-21.04-31.72-29.73
					c-26.75-18.86-59-31.54-90.54-43.58c-29.95-11.43-63.73-20.94-95.91-10.11c-22.03,7.41-35.72,21.35-39.68,38.9
					c8.93-8.92,21.8-13.1,36.18-13.88c36.19-1.97,72.56,8.85,105.06,21.16c28.06,10.63,57,21.9,81.96,37.23
					c21.9,13.46,43.55,33,41.23,57.58c-1.2,12.69-8.75,25.25-5.99,38.16c1.98,9.24,9.96,19.04,21.37,21.18
					c29.69,5.57,31.45-32.85,29.47-48.06c-1.8-13.89-5.77-27.38-8.48-40.9C379.62,151.19,376.43,150.81,372.95,149.8z"/>
			</g>
			<g>
				<path class="st3" d="M645.74,0c38.95,39.81,99.82,63.04,161.32,61.02c36.58-1.2,69.22-12.54,101.29-26.63
					C943.37,19,978.7,1.51,1019.53,2.64c22.06,0.61,43.58,5.35,65.33,8.02c20.4,2.51,39.83,2.54,60.11-0.61
					c21.72-3.37,40.21-5.06,59.74,5.03c14.75,7.61,26.87,18.29,39.64,28.01c27.13,20.64,57.68,33.56,94.62,35.27
					c37.02,1.72,74.29-7.74,105.27-24.6c16.54-9,32.01-19.62,49.68-27.08c19.76-8.34,37.97-8.34,58.68-2.37
					c38.47,11.09,75.71,17.6,116.59,13.27c19-2.02,37.61-5.81,55.42-11.78c16.52-5.54,35.1-12.03,46.84-23.77
					c0.65-0.65,1.27-1.33,1.86-2.02H645.74z"/>
				<path class="st3" d="M141.99,0c42.25,43.06,110.92,60.91,174.88,44.55C355.05,34.79,389.59,15.19,425.7,0H141.99z"/>
			</g>
			<path class="st4" d="M82.69,28.82c-5.43-8.59-18.9-11.05-28.85-6.79c-11.54,4.94-14.49,16.74-12.32,26.6
				c0.56,2.55,3.44,4.59,6.26,5.28c8.11,1.98,16.26,0.4,22.62-3.36C81.11,48.25,88.13,37.43,82.69,28.82z"/>
			<path class="st4" d="M345.17,65.35c-11.53,0-11.55,15.12,0,15.12C356.7,80.47,356.72,65.35,345.17,65.35z"/>
			<path class="st4" d="M428.68,16.9c-9.51-3.92-20.83-1.16-26.8,5.36c-5.86,4.57-8.89,11.59-6.94,18.75
				c1.23,4.54,8.48,7.21,13.16,4.52c8.3-4.78,15.86-10.31,22.39-16.76C433.95,25.35,434.24,19.19,428.68,16.9z"/>
			<path class="st4" d="M1298.79,94.11c-0.79-3.48-4.9-5.23-8.64-5.55c-15.81-1.36-28.85,9.65-30.72,22.09
				c-0.41,1.66-0.45,3.32-0.15,4.92c0.1,1.05,0.27,2.1,0.54,3.14c0.69,2.61,2.51,4.17,4.72,4.9c1.48,1.1,3.23,2.02,5.25,2.66
				c8.35,2.65,18.37-0.03,24.09-5.68C1301.38,113.2,1300.84,103.09,1298.79,94.11z"/>
			<path class="st4" d="M1182.2,36.64c-11.53,0-11.55,15.12,0,15.12C1193.73,51.76,1193.75,36.64,1182.2,36.64z"/>
			<path class="st4" d="M1278.74,224.07c-0.81-2.52-3.25-4.61-6.26-5.28c-1.06-0.24-2.11-0.33-3.16-0.35
				c-1.35-0.26-2.76-0.27-4.11,0.17c-1.04,0.34-2.03,0.74-2.99,1.18c-0.65,0.27-1.27,0.58-1.87,0.93c-0.13,0.07-0.27,0.15-0.4,0.22
				c-0.18,0.11-0.35,0.21-0.52,0.33c-10.47,6.32-14.88,18.74-7.33,28.57c2.72,3.54,7.8,4.7,12.26,2.71
				C1276.39,247.18,1282.28,235.06,1278.74,224.07z"/>
			<path class="st4" d="M1567.86,53.78c-0.29-1.74-2.41-3.68-4.12-4.52c-1.92-0.95-4.75-1.35-6.9-0.76
				c-0.72,0.2-1.41,0.48-2.08,0.79c-0.7-0.36-1.42-0.67-2.17-0.81c-4.25-0.82-10.29,1.1-11.02,5.28c-0.64,3.65-0.04,7.1,3.28,9.76
				c2.62,2.1,6.28,3.15,9.86,3.16c3.59,0.01,7.09-1.04,9.76-3.07C1567.9,60.99,1568.48,57.44,1567.86,53.78z"/>
			<path class="st4" d="M1865.91,18.71c-16.85-10.42-42.02-1.06-42.13,17.21c-0.04,6.16,3.39,10.96,8.37,13.95
				c5.12,6.09,13.76,9.93,23.77,8.24C1878.38,54.32,1883.93,29.85,1865.91,18.71z"/>
			<path class="st4" d="M1808.27,45.26c-11.53,0-11.55,15.12,0,15.12C1819.8,60.38,1819.82,45.26,1808.27,45.26z"/>
			<path class="st4" d="M752.87,74.92c-6.59,0-13.05,2.71-17.02,7.66c-6.4,7.98-3.47,18.1,4.58,24.41
				c16.35,12.82,55.19,3.07,55.38-17.57C795.97,73.31,769.79,69.43,752.87,74.92z"/>
		</g>
		<path class="st3" d="M533.32,1041.9c-27.79-34.98-66.75-61.74-119.57-58.05c-26.17,1.83-48.83,10.24-68.94,24.29
			c-8.6,6.01-17.07,13.57-27.62,17.18c-12.83,4.38-25.79-1.33-37.53-5.57c-11.74-4.24-23.25-7.68-36.14-8.14
			c-13.37-0.48-26.8,2.34-39.76,4.76c-12.31,2.29-26.13,5.38-38.46,1.51c-10.68-3.35-18.46-11.14-25.51-18.34
			c-16.45-16.8-31.07-32.53-56.12-40.48c-24.62-7.81-52.36-6.55-75.84,3.41c-2.52,1.07-4.97,2.24-7.33,3.49V1080h562.38
			C552.19,1067.82,543.29,1054.46,533.32,1041.9z"/>
		<path class="st3" d="M1770.4,941.82c-12.29-18.62-37.24-31.44-62.8-29.48c-44,3.37-55.61,42.29-68.79,71.23
			c-6.03,13.24-14.6,28.34-32.48,31.92c-24.48,4.9-51.55-8.97-75.02-13.21c-54.21-9.8-97.89,18.33-125.33,55.67
			c-5.31,7.23-9.92,14.82-14.94,22.05H1920v-45.28c-2.83-1.24-5.78-2.34-8.84-3.29c-27.06-8.42-54.89-4.56-82.08,0.95
			c-12.59,2.55-26.17,5.49-38.84,1.71c-14.34-4.27-15.39-14.43-13.37-25.83C1780.97,985.18,1784.56,963.28,1770.4,941.82z"/>
		<path class="st3" d="M636.47,1002.7c-6.49-9.13-22.44-15.9-34.45-17.61c-3.22-0.46-6.48-0.6-9.7-0.43
			c-7.55-0.06-15.06,2.16-21.81,6.74c-1.35,0.91-2.39,2.03-3.16,3.27c-0.85,0.84-1.67,1.71-2.41,2.66
			c-7.73,9.85-6.3,22.97,3.65,31.36c6.17,5.2,15.18,8.44,24.54,9.43c11.67,2.76,24.89,1.26,34.58-5.15
			C638.37,1025.92,643.9,1013.15,636.47,1002.7z"/>
		<path class="st3" d="M358.24,967.28c-0.79-2.38-2.22-4.44-4.28-6.2c-1.12-0.73-2.25-1.46-3.37-2.2c-2.6-1.27-5.39-1.91-8.4-1.92
			h-2.27c-2.29-0.07-4.43,0.33-6.41,1.21c-2.06,0.57-3.85,1.53-5.36,2.9c-1.62,1.27-2.77,2.78-3.44,4.52
			c-1.04,1.67-1.52,3.48-1.43,5.41l0.59,3.73c0.79,2.38,2.22,4.44,4.28,6.2c1.12,0.73,2.25,1.46,3.37,2.2
			c2.6,1.27,5.39,1.91,8.4,1.92h2.27c2.29,0.07,4.43-0.33,6.41-1.21c2.06-0.57,3.85-1.53,5.36-2.9c1.62-1.27,2.77-2.78,3.44-4.52
			c1.04-1.67,1.52-3.48,1.43-5.41C358.64,969.76,358.44,968.52,358.24,967.28z"/>
		<path class="st3" d="M261.31,939.49c-21.51-17.75-75.32-7.89-78.86,19.61c-3.73,28.99,36.13,42.07,61.83,27.04
			c0.24-0.14,0.47-0.3,0.7-0.44c8.58-1.62,16.44-5.38,21.53-11.66C275.43,963.05,272.39,948.63,261.31,939.49z"/>
		<path class="st3" d="M683.2,962.72c-0.52-1.34-1.4-2.5-2.65-3.48c-1.16-1.05-2.53-1.8-4.12-2.23c-1.53-0.68-3.17-0.99-4.93-0.93
			c-1.13,0.13-2.27,0.26-3.4,0.39c-2.17,0.51-4.05,1.44-5.65,2.78c-0.67,0.73-1.33,1.46-2,2.19c-1.16,1.68-1.74,3.5-1.75,5.45v1.91
			c-0.07,1.49,0.3,2.87,1.1,4.16c0.52,1.34,1.4,2.5,2.65,3.48c1.16,1.05,2.53,1.8,4.12,2.23c1.53,0.68,3.17,0.99,4.93,0.93
			c1.13-0.13,2.27-0.26,3.4-0.39c2.17-0.51,4.05-1.44,5.65-2.78c0.67-0.73,1.33-1.46,2-2.19c1.16-1.68,1.74-3.5,1.75-5.45v-1.91
			C684.37,965.39,684,964.01,683.2,962.72z"/>
		<path class="st2" d="M413.11,1036.75c-41.26-4.62-80.06,10.95-119.02,19.58c-21.63,4.79-43.53,7.05-65.55,2.66
			c-19.53-3.9-37.9-10.98-57.32-15.2c-20.35-4.42-42.18-1.73-62.08-6.95c-17.28-4.53-31.04-15.52-45.81-23.86
			c-17.5-9.89-42.68-16.4-62.83-11.05V1080h482.02C471.6,1055.06,443.68,1040.17,413.11,1036.75z"/>
		<path class="st2" d="M1832.58,1050.04c-31.23-1.91-70.14,0.24-95.56-18.07c-13.24-9.54-20.98-24.16-39.85-26.67
			c-16.87-2.24-30.43,7.22-41.38,16.81c-14.97,13.09-27.78,22.89-49.66,26.52c-19.99,3.31-40.68,1.99-60.91,1.81
			c-33.96-0.3-74.37,4.76-95.57,28.88c-0.67,0.18-1.25,0.42-1.8,0.69H1920c-0.47-0.88-1.04-1.74-1.84-2.52
			C1896.65,1056.35,1863.81,1051.95,1832.58,1050.04z"/>
		<path class="st1" d="M113.22,1020.57c-3.7-8.77-13.63-14.9-24.39-16.18c-2.51-2.31-6.48-3.09-10.4-2.62
			c-28.61,3.46-37.02,36.24-12.96,49.39C89.96,1064.54,123.43,1044.76,113.22,1020.57z"/>
		<path class="st1" d="M436.34,1019.17c-12.29-6.24-28.06-8.1-41.87-4.81c-11.75,2.8-26.39,10.42-23.78,22.4
			c1.78,8.17,10.56,13.64,19.99,17.01c7.77,6.74,17.74,11.4,29.4,11.76c13.44,0.41,28.89-5.27,34.45-16.22
			C460.72,1037.11,448.01,1025.1,436.34,1019.17z"/>
		<path class="st1" d="M344.46,1037.79c-6-1.88-12.97,0.07-17.45,3.65c-2.55,2.04-4.27,4.65-5.07,7.45
			c-0.33,0.66-0.62,1.33-0.82,2.03c-1.07,3.85,1.21,9.31,6.22,10.46c2.22,0.98,4.81,1.33,7.27,0.66c0.37-0.1,0.72-0.25,1.07-0.39
			c0.5-0.07,0.99-0.12,1.51-0.23c2.66-0.56,5-1.68,7.14-3.08c4.75-3.1,7.02-7.28,7.64-12.24
			C352.47,1042.15,348.4,1039.02,344.46,1037.79z"/>
		<path class="st1" d="M1314.38,1005.7c-17.75,9.03-20.5,32.12-0.03,42.86c24,12.59,54.16-3.38,57.74-25.66
			C1376.43,995.87,1332.87,988.58,1314.38,1005.7z"/>
		<path class="st1" d="M1615.46,983.69c0.66-7.82-4.32-15.43-12.14-19.61c-8.48-4.53-19.09-4.41-27.88-0.57
			c-16.65,7.26-24.61,28.55-6.26,38.22c10.77,5.67,21.79,3.92,30.96-1.27C1608.22,997.86,1614.78,991.75,1615.46,983.69z"/>
		<path class="st1" d="M1624.53,936.66c-18.12,0-18.15,23.76,0,23.76C1642.65,960.42,1642.68,936.66,1624.53,936.66z"/>
		<path class="st1" d="M1745.64,972.03c-6.69-9.76-20.39-11.38-32.33-8.55c-7.58,1.79-15.05,5.16-20.31,10.19
			c-10.66,7.8-11.43,23.34-2.53,33.02c14.72,16,42.34,7.7,53.19-7.28C1749.41,991.46,1751.37,980.38,1745.64,972.03z"/>
		<path class="st2" d="M659.41,1080h551.61c-50.72-17.93-101.07-36.72-154.54-48.03c-96.54-20.42-192.39-5.8-285.94,18.21
			C733.36,1059.73,696.54,1070.29,659.41,1080z"/>
		<path class="st1" d="M1738.06,152.26c-14.4-2.79-28.82,2.71-35.72,13.23c-5.81,6.55-8,15.42-4.45,23.36
			c7.44,16.62,35.8,6.05,46.12-2.97c5.67-4.95,11.59-12.71,11.59-19.87C1755.61,158.72,1745.5,153.7,1738.06,152.26z"/>
		<path class="st1" d="M1118.68,132.09c-14.83,0-14.85,19.44,0,19.44C1133.51,151.53,1133.53,132.09,1118.68,132.09z"/>
		<path class="st1" d="M1093.47,111.72c-0.06-3.27-2.1-6.87-5.71-8.39c-7.02-2.96-15.02-2.11-20.65,2.63
			c-4.32,3.64-5.89,8.39-4.87,13.1c-0.18,0.83-0.31,1.68-0.31,2.57c-0.06,9.62,12.68,17.14,23.36,13.91
			c4.76-1.44,8.55-4.88,8.46-9.37C1093.66,121.34,1093.57,116.53,1093.47,111.72z"/>
		<path class="st1" d="M1890.26,175.55c-4.91-3.98-12.5-6.46-19.29-4.97c-4.63,0.4-8.95,2.87-10.11,6.97
			c-1.94,6.89,0.73,14.26,7.21,18.85c8.27,5.85,23.85,7.87,28.02-2.99C1898.5,187.15,1895.79,180.03,1890.26,175.55z"/>
		<path class="st1" d="M184.04,124.56c-8.36-7.03-21.11-9.51-32.25-6.18c-5.38,1.61-10.19,4.54-13.27,8.64
			c-4.13,5.48-2.61,10.96,0.88,16.42c4.63,7.23,12.25,12.1,21.07,14.6c7.62,4.39,17.32,6.33,26.78,4.42
			c5.01-1.01,8.31-5.2,8.46-9.37C196.06,142.84,192.87,131.99,184.04,124.56z"/>
		<path class="st1" d="M501.69,74.68c-14.82,0-14.85,19.44,0,19.44C516.51,94.12,516.54,74.68,501.69,74.68z"/>
		<path class="st1" d="M1387.28,147.53c-14.94-18.07-49.46,0.64-52.03,19.27c-0.96,3.65-1.02,7.54,0.03,11.43
			c1.14,4.24,6.2,7.01,11.11,7.14c13.99,0.36,30.22-0.56,39.72-10.5C1393.41,167.23,1393.95,155.59,1387.28,147.53z"/>
		<path class="st1" d="M492.74,107.11c-6.3-5.81-21.3-11.24-31.88-4.86c-10.59,6.38-22.06,16.28-16.86,29.47
			c5.74,14.56,25.15,19.73,40.62,12.34C500.39,136.53,505.41,118.79,492.74,107.11z"/>
	</g>
</g>
<g id="TEXTS">
</g>
</svg>
